<mxfile host="app.diagrams.net" modified="2022-11-17T09:00:44.243Z" agent="5.0 (Windows NT 10.0; Win64; x64) AppleWebKit/537.36 (KHTML, like Gecko) Chrome/107.0.0.0 Safari/537.36 Edg/107.0.1418.42" etag="hmvZyhHJSZ_H7zG-p3Zn" version="20.5.3" type="github">
  <diagram id="8K1AcR_lbaNQIs9qGa7O" name="Page-1">
    <mxGraphModel dx="1500" dy="2152" grid="1" gridSize="10" guides="1" tooltips="1" connect="1" arrows="1" fold="1" page="1" pageScale="1" pageWidth="827" pageHeight="1169" math="0" shadow="0">
      <root>
        <mxCell id="0" />
        <mxCell id="1" parent="0" />
        <mxCell id="Eoh-nvDwhl1T2I1eWY5M-1" value="cRLScene" style="swimlane;fontStyle=1;align=center;verticalAlign=top;childLayout=stackLayout;horizontal=1;startSize=26;horizontalStack=0;resizeParent=1;resizeParentMax=0;resizeLast=0;collapsible=1;marginBottom=0;" vertex="1" parent="1">
          <mxGeometry x="160" y="80" width="160" height="86" as="geometry" />
        </mxCell>
        <mxCell id="Eoh-nvDwhl1T2I1eWY5M-2" value="+ field: type" style="text;strokeColor=none;fillColor=none;align=left;verticalAlign=top;spacingLeft=4;spacingRight=4;overflow=hidden;rotatable=0;points=[[0,0.5],[1,0.5]];portConstraint=eastwest;" vertex="1" parent="Eoh-nvDwhl1T2I1eWY5M-1">
          <mxGeometry y="26" width="160" height="26" as="geometry" />
        </mxCell>
        <mxCell id="Eoh-nvDwhl1T2I1eWY5M-3" value="" style="line;strokeWidth=1;fillColor=none;align=left;verticalAlign=middle;spacingTop=-1;spacingLeft=3;spacingRight=3;rotatable=0;labelPosition=right;points=[];portConstraint=eastwest;strokeColor=inherit;" vertex="1" parent="Eoh-nvDwhl1T2I1eWY5M-1">
          <mxGeometry y="52" width="160" height="8" as="geometry" />
        </mxCell>
        <mxCell id="Eoh-nvDwhl1T2I1eWY5M-4" value="+ method(type): type" style="text;strokeColor=none;fillColor=none;align=left;verticalAlign=top;spacingLeft=4;spacingRight=4;overflow=hidden;rotatable=0;points=[[0,0.5],[1,0.5]];portConstraint=eastwest;" vertex="1" parent="Eoh-nvDwhl1T2I1eWY5M-1">
          <mxGeometry y="60" width="160" height="26" as="geometry" />
        </mxCell>
        <mxCell id="Eoh-nvDwhl1T2I1eWY5M-5" value="cDrawScene" style="swimlane;fontStyle=1;align=center;verticalAlign=top;childLayout=stackLayout;horizontal=1;startSize=26;horizontalStack=0;resizeParent=1;resizeParentMax=0;resizeLast=0;collapsible=1;marginBottom=0;" vertex="1" parent="1">
          <mxGeometry x="460" y="70" width="160" height="86" as="geometry" />
        </mxCell>
        <mxCell id="Eoh-nvDwhl1T2I1eWY5M-6" value="+ field: type" style="text;strokeColor=none;fillColor=none;align=left;verticalAlign=top;spacingLeft=4;spacingRight=4;overflow=hidden;rotatable=0;points=[[0,0.5],[1,0.5]];portConstraint=eastwest;" vertex="1" parent="Eoh-nvDwhl1T2I1eWY5M-5">
          <mxGeometry y="26" width="160" height="26" as="geometry" />
        </mxCell>
        <mxCell id="Eoh-nvDwhl1T2I1eWY5M-7" value="" style="line;strokeWidth=1;fillColor=none;align=left;verticalAlign=middle;spacingTop=-1;spacingLeft=3;spacingRight=3;rotatable=0;labelPosition=right;points=[];portConstraint=eastwest;strokeColor=inherit;" vertex="1" parent="Eoh-nvDwhl1T2I1eWY5M-5">
          <mxGeometry y="52" width="160" height="8" as="geometry" />
        </mxCell>
        <mxCell id="Eoh-nvDwhl1T2I1eWY5M-8" value="+ method(type): type" style="text;strokeColor=none;fillColor=none;align=left;verticalAlign=top;spacingLeft=4;spacingRight=4;overflow=hidden;rotatable=0;points=[[0,0.5],[1,0.5]];portConstraint=eastwest;" vertex="1" parent="Eoh-nvDwhl1T2I1eWY5M-5">
          <mxGeometry y="60" width="160" height="26" as="geometry" />
        </mxCell>
        <mxCell id="Eoh-nvDwhl1T2I1eWY5M-9" value="cDrawRLScene " style="swimlane;fontStyle=1;align=center;verticalAlign=top;childLayout=stackLayout;horizontal=1;startSize=26;horizontalStack=0;resizeParent=1;resizeParentMax=0;resizeLast=0;collapsible=1;marginBottom=0;" vertex="1" parent="1">
          <mxGeometry x="160" y="220" width="160" height="86" as="geometry" />
        </mxCell>
        <mxCell id="Eoh-nvDwhl1T2I1eWY5M-10" value="+ field: type" style="text;strokeColor=none;fillColor=none;align=left;verticalAlign=top;spacingLeft=4;spacingRight=4;overflow=hidden;rotatable=0;points=[[0,0.5],[1,0.5]];portConstraint=eastwest;" vertex="1" parent="Eoh-nvDwhl1T2I1eWY5M-9">
          <mxGeometry y="26" width="160" height="26" as="geometry" />
        </mxCell>
        <mxCell id="Eoh-nvDwhl1T2I1eWY5M-11" value="" style="line;strokeWidth=1;fillColor=none;align=left;verticalAlign=middle;spacingTop=-1;spacingLeft=3;spacingRight=3;rotatable=0;labelPosition=right;points=[];portConstraint=eastwest;strokeColor=inherit;" vertex="1" parent="Eoh-nvDwhl1T2I1eWY5M-9">
          <mxGeometry y="52" width="160" height="8" as="geometry" />
        </mxCell>
        <mxCell id="Eoh-nvDwhl1T2I1eWY5M-12" value="+ method(type): type" style="text;strokeColor=none;fillColor=none;align=left;verticalAlign=top;spacingLeft=4;spacingRight=4;overflow=hidden;rotatable=0;points=[[0,0.5],[1,0.5]];portConstraint=eastwest;" vertex="1" parent="Eoh-nvDwhl1T2I1eWY5M-9">
          <mxGeometry y="60" width="160" height="26" as="geometry" />
        </mxCell>
        <mxCell id="Eoh-nvDwhl1T2I1eWY5M-13" value="cScene" style="swimlane;fontStyle=1;align=center;verticalAlign=top;childLayout=stackLayout;horizontal=1;startSize=40;horizontalStack=0;resizeParent=1;resizeParentMax=0;resizeLast=0;collapsible=1;marginBottom=0;" vertex="1" parent="1">
          <mxGeometry x="340" y="-90" width="170" height="110" as="geometry" />
        </mxCell>
        <mxCell id="Eoh-nvDwhl1T2I1eWY5M-14" value="+ field: type" style="text;strokeColor=none;fillColor=none;align=left;verticalAlign=top;spacingLeft=4;spacingRight=4;overflow=hidden;rotatable=0;points=[[0,0.5],[1,0.5]];portConstraint=eastwest;" vertex="1" parent="Eoh-nvDwhl1T2I1eWY5M-13">
          <mxGeometry y="40" width="170" height="36" as="geometry" />
        </mxCell>
        <mxCell id="Eoh-nvDwhl1T2I1eWY5M-15" value="" style="line;strokeWidth=1;fillColor=none;align=left;verticalAlign=middle;spacingTop=-1;spacingLeft=3;spacingRight=3;rotatable=0;labelPosition=right;points=[];portConstraint=eastwest;strokeColor=inherit;" vertex="1" parent="Eoh-nvDwhl1T2I1eWY5M-13">
          <mxGeometry y="76" width="170" height="8" as="geometry" />
        </mxCell>
        <mxCell id="Eoh-nvDwhl1T2I1eWY5M-16" value="+ method(type): type" style="text;strokeColor=none;fillColor=none;align=left;verticalAlign=top;spacingLeft=4;spacingRight=4;overflow=hidden;rotatable=0;points=[[0,0.5],[1,0.5]];portConstraint=eastwest;" vertex="1" parent="Eoh-nvDwhl1T2I1eWY5M-13">
          <mxGeometry y="84" width="170" height="26" as="geometry" />
        </mxCell>
        <mxCell id="Eoh-nvDwhl1T2I1eWY5M-17" value="cDrawSceneImitate&#xa;" style="swimlane;fontStyle=1;align=center;verticalAlign=top;childLayout=stackLayout;horizontal=1;startSize=26;horizontalStack=0;resizeParent=1;resizeParentMax=0;resizeLast=0;collapsible=1;marginBottom=0;" vertex="1" parent="1">
          <mxGeometry x="320" y="400" width="160" height="86" as="geometry" />
        </mxCell>
        <mxCell id="Eoh-nvDwhl1T2I1eWY5M-18" value="+ field: type" style="text;strokeColor=none;fillColor=none;align=left;verticalAlign=top;spacingLeft=4;spacingRight=4;overflow=hidden;rotatable=0;points=[[0,0.5],[1,0.5]];portConstraint=eastwest;" vertex="1" parent="Eoh-nvDwhl1T2I1eWY5M-17">
          <mxGeometry y="26" width="160" height="26" as="geometry" />
        </mxCell>
        <mxCell id="Eoh-nvDwhl1T2I1eWY5M-19" value="" style="line;strokeWidth=1;fillColor=none;align=left;verticalAlign=middle;spacingTop=-1;spacingLeft=3;spacingRight=3;rotatable=0;labelPosition=right;points=[];portConstraint=eastwest;strokeColor=inherit;" vertex="1" parent="Eoh-nvDwhl1T2I1eWY5M-17">
          <mxGeometry y="52" width="160" height="8" as="geometry" />
        </mxCell>
        <mxCell id="Eoh-nvDwhl1T2I1eWY5M-20" value="+ method(type): type" style="text;strokeColor=none;fillColor=none;align=left;verticalAlign=top;spacingLeft=4;spacingRight=4;overflow=hidden;rotatable=0;points=[[0,0.5],[1,0.5]];portConstraint=eastwest;" vertex="1" parent="Eoh-nvDwhl1T2I1eWY5M-17">
          <mxGeometry y="60" width="160" height="26" as="geometry" />
        </mxCell>
        <mxCell id="Eoh-nvDwhl1T2I1eWY5M-21" value="cDrawSceneSimChar " style="swimlane;fontStyle=1;align=center;verticalAlign=top;childLayout=stackLayout;horizontal=1;startSize=26;horizontalStack=0;resizeParent=1;resizeParentMax=0;resizeLast=0;collapsible=1;marginBottom=0;" vertex="1" parent="1">
          <mxGeometry x="480" y="210" width="160" height="86" as="geometry" />
        </mxCell>
        <mxCell id="Eoh-nvDwhl1T2I1eWY5M-22" value="+ field: type" style="text;strokeColor=none;fillColor=none;align=left;verticalAlign=top;spacingLeft=4;spacingRight=4;overflow=hidden;rotatable=0;points=[[0,0.5],[1,0.5]];portConstraint=eastwest;" vertex="1" parent="Eoh-nvDwhl1T2I1eWY5M-21">
          <mxGeometry y="26" width="160" height="26" as="geometry" />
        </mxCell>
        <mxCell id="Eoh-nvDwhl1T2I1eWY5M-23" value="" style="line;strokeWidth=1;fillColor=none;align=left;verticalAlign=middle;spacingTop=-1;spacingLeft=3;spacingRight=3;rotatable=0;labelPosition=right;points=[];portConstraint=eastwest;strokeColor=inherit;" vertex="1" parent="Eoh-nvDwhl1T2I1eWY5M-21">
          <mxGeometry y="52" width="160" height="8" as="geometry" />
        </mxCell>
        <mxCell id="Eoh-nvDwhl1T2I1eWY5M-24" value="+ method(type): type" style="text;strokeColor=none;fillColor=none;align=left;verticalAlign=top;spacingLeft=4;spacingRight=4;overflow=hidden;rotatable=0;points=[[0,0.5],[1,0.5]];portConstraint=eastwest;" vertex="1" parent="Eoh-nvDwhl1T2I1eWY5M-21">
          <mxGeometry y="60" width="160" height="26" as="geometry" />
        </mxCell>
        <mxCell id="Eoh-nvDwhl1T2I1eWY5M-25" value="cRLScene" style="swimlane;fontStyle=1;align=center;verticalAlign=top;childLayout=stackLayout;horizontal=1;startSize=26;horizontalStack=0;resizeParent=1;resizeParentMax=0;resizeLast=0;collapsible=1;marginBottom=0;" vertex="1" parent="1">
          <mxGeometry x="160" y="542" width="160" height="86" as="geometry" />
        </mxCell>
        <mxCell id="Eoh-nvDwhl1T2I1eWY5M-26" value="+ field: type" style="text;strokeColor=none;fillColor=none;align=left;verticalAlign=top;spacingLeft=4;spacingRight=4;overflow=hidden;rotatable=0;points=[[0,0.5],[1,0.5]];portConstraint=eastwest;" vertex="1" parent="Eoh-nvDwhl1T2I1eWY5M-25">
          <mxGeometry y="26" width="160" height="26" as="geometry" />
        </mxCell>
        <mxCell id="Eoh-nvDwhl1T2I1eWY5M-27" value="" style="line;strokeWidth=1;fillColor=none;align=left;verticalAlign=middle;spacingTop=-1;spacingLeft=3;spacingRight=3;rotatable=0;labelPosition=right;points=[];portConstraint=eastwest;strokeColor=inherit;" vertex="1" parent="Eoh-nvDwhl1T2I1eWY5M-25">
          <mxGeometry y="52" width="160" height="8" as="geometry" />
        </mxCell>
        <mxCell id="Eoh-nvDwhl1T2I1eWY5M-28" value="+ method(type): type" style="text;strokeColor=none;fillColor=none;align=left;verticalAlign=top;spacingLeft=4;spacingRight=4;overflow=hidden;rotatable=0;points=[[0,0.5],[1,0.5]];portConstraint=eastwest;" vertex="1" parent="Eoh-nvDwhl1T2I1eWY5M-25">
          <mxGeometry y="60" width="160" height="26" as="geometry" />
        </mxCell>
        <mxCell id="Eoh-nvDwhl1T2I1eWY5M-29" value="cRLScene" style="swimlane;fontStyle=1;align=center;verticalAlign=top;childLayout=stackLayout;horizontal=1;startSize=26;horizontalStack=0;resizeParent=1;resizeParentMax=0;resizeLast=0;collapsible=1;marginBottom=0;" vertex="1" parent="1">
          <mxGeometry x="460" y="542" width="160" height="86" as="geometry" />
        </mxCell>
        <mxCell id="Eoh-nvDwhl1T2I1eWY5M-30" value="+ field: type" style="text;strokeColor=none;fillColor=none;align=left;verticalAlign=top;spacingLeft=4;spacingRight=4;overflow=hidden;rotatable=0;points=[[0,0.5],[1,0.5]];portConstraint=eastwest;" vertex="1" parent="Eoh-nvDwhl1T2I1eWY5M-29">
          <mxGeometry y="26" width="160" height="26" as="geometry" />
        </mxCell>
        <mxCell id="Eoh-nvDwhl1T2I1eWY5M-31" value="" style="line;strokeWidth=1;fillColor=none;align=left;verticalAlign=middle;spacingTop=-1;spacingLeft=3;spacingRight=3;rotatable=0;labelPosition=right;points=[];portConstraint=eastwest;strokeColor=inherit;" vertex="1" parent="Eoh-nvDwhl1T2I1eWY5M-29">
          <mxGeometry y="52" width="160" height="8" as="geometry" />
        </mxCell>
        <mxCell id="Eoh-nvDwhl1T2I1eWY5M-32" value="+ method(type): type" style="text;strokeColor=none;fillColor=none;align=left;verticalAlign=top;spacingLeft=4;spacingRight=4;overflow=hidden;rotatable=0;points=[[0,0.5],[1,0.5]];portConstraint=eastwest;" vertex="1" parent="Eoh-nvDwhl1T2I1eWY5M-29">
          <mxGeometry y="60" width="160" height="26" as="geometry" />
        </mxCell>
        <mxCell id="Eoh-nvDwhl1T2I1eWY5M-34" value="Extends" style="endArrow=block;endSize=16;endFill=0;html=1;rounded=0;exitX=0.5;exitY=0;exitDx=0;exitDy=0;entryX=0.494;entryY=1.038;entryDx=0;entryDy=0;entryPerimeter=0;" edge="1" parent="1" source="Eoh-nvDwhl1T2I1eWY5M-9" target="Eoh-nvDwhl1T2I1eWY5M-4">
          <mxGeometry width="160" relative="1" as="geometry">
            <mxPoint x="210" y="190" as="sourcePoint" />
            <mxPoint x="370" y="190" as="targetPoint" />
          </mxGeometry>
        </mxCell>
        <mxCell id="Eoh-nvDwhl1T2I1eWY5M-35" value="Extends" style="endArrow=block;endSize=16;endFill=0;html=1;rounded=0;exitX=0.5;exitY=0;exitDx=0;exitDy=0;entryX=0.5;entryY=1.115;entryDx=0;entryDy=0;entryPerimeter=0;" edge="1" parent="1" source="Eoh-nvDwhl1T2I1eWY5M-9" target="Eoh-nvDwhl1T2I1eWY5M-8">
          <mxGeometry width="160" relative="1" as="geometry">
            <mxPoint x="370" y="200" as="sourcePoint" />
            <mxPoint x="530" y="200" as="targetPoint" />
          </mxGeometry>
        </mxCell>
        <mxCell id="Eoh-nvDwhl1T2I1eWY5M-36" value="Extends" style="endArrow=block;endSize=16;endFill=0;html=1;rounded=0;" edge="1" parent="1">
          <mxGeometry width="160" relative="1" as="geometry">
            <mxPoint x="780" y="-60" as="sourcePoint" />
            <mxPoint x="940" y="-60" as="targetPoint" />
          </mxGeometry>
        </mxCell>
        <mxCell id="Eoh-nvDwhl1T2I1eWY5M-37" value="Extends" style="endArrow=block;endSize=16;endFill=0;html=1;rounded=0;" edge="1" parent="1">
          <mxGeometry width="160" relative="1" as="geometry">
            <mxPoint x="790" y="-50" as="sourcePoint" />
            <mxPoint x="950" y="-50" as="targetPoint" />
          </mxGeometry>
        </mxCell>
        <mxCell id="Eoh-nvDwhl1T2I1eWY5M-38" value="Extends" style="endArrow=block;endSize=16;endFill=0;html=1;rounded=0;" edge="1" parent="1">
          <mxGeometry width="160" relative="1" as="geometry">
            <mxPoint x="800" y="-40" as="sourcePoint" />
            <mxPoint x="960" y="-40" as="targetPoint" />
          </mxGeometry>
        </mxCell>
        <mxCell id="Eoh-nvDwhl1T2I1eWY5M-39" value="Extends" style="endArrow=block;endSize=16;endFill=0;html=1;rounded=0;" edge="1" parent="1">
          <mxGeometry width="160" relative="1" as="geometry">
            <mxPoint x="810" y="-30" as="sourcePoint" />
            <mxPoint x="970" y="-30" as="targetPoint" />
          </mxGeometry>
        </mxCell>
        <mxCell id="Eoh-nvDwhl1T2I1eWY5M-40" value="Extends" style="endArrow=block;endSize=16;endFill=0;html=1;rounded=0;" edge="1" parent="1">
          <mxGeometry width="160" relative="1" as="geometry">
            <mxPoint x="820" y="-20" as="sourcePoint" />
            <mxPoint x="980" y="-20" as="targetPoint" />
          </mxGeometry>
        </mxCell>
        <mxCell id="Eoh-nvDwhl1T2I1eWY5M-41" value="Extends" style="endArrow=block;endSize=16;endFill=0;html=1;rounded=0;" edge="1" parent="1">
          <mxGeometry width="160" relative="1" as="geometry">
            <mxPoint x="830" y="-10" as="sourcePoint" />
            <mxPoint x="990" y="-10" as="targetPoint" />
          </mxGeometry>
        </mxCell>
        <mxCell id="Eoh-nvDwhl1T2I1eWY5M-42" value="Extends" style="endArrow=block;endSize=16;endFill=0;html=1;rounded=0;" edge="1" parent="1">
          <mxGeometry width="160" relative="1" as="geometry">
            <mxPoint x="840" as="sourcePoint" />
            <mxPoint x="1000" as="targetPoint" />
          </mxGeometry>
        </mxCell>
        <mxCell id="Eoh-nvDwhl1T2I1eWY5M-43" value="Extends" style="endArrow=block;endSize=16;endFill=0;html=1;rounded=0;" edge="1" parent="1">
          <mxGeometry width="160" relative="1" as="geometry">
            <mxPoint x="850" y="10" as="sourcePoint" />
            <mxPoint x="1010" y="10" as="targetPoint" />
          </mxGeometry>
        </mxCell>
        <mxCell id="Eoh-nvDwhl1T2I1eWY5M-44" value="Extends" style="endArrow=block;endSize=16;endFill=0;html=1;rounded=0;entryX=0.475;entryY=1.077;entryDx=0;entryDy=0;entryPerimeter=0;exitX=0.556;exitY=-0.035;exitDx=0;exitDy=0;exitPerimeter=0;" edge="1" parent="1" source="Eoh-nvDwhl1T2I1eWY5M-17" target="Eoh-nvDwhl1T2I1eWY5M-24">
          <mxGeometry width="160" relative="1" as="geometry">
            <mxPoint x="860" y="20" as="sourcePoint" />
            <mxPoint x="1020" y="20" as="targetPoint" />
          </mxGeometry>
        </mxCell>
        <mxCell id="Eoh-nvDwhl1T2I1eWY5M-45" value="Extends" style="endArrow=block;endSize=16;endFill=0;html=1;rounded=0;exitX=0.5;exitY=0;exitDx=0;exitDy=0;" edge="1" parent="1" source="Eoh-nvDwhl1T2I1eWY5M-17" target="Eoh-nvDwhl1T2I1eWY5M-12">
          <mxGeometry width="160" relative="1" as="geometry">
            <mxPoint x="870" y="30" as="sourcePoint" />
            <mxPoint x="1030" y="30" as="targetPoint" />
          </mxGeometry>
        </mxCell>
        <mxCell id="Eoh-nvDwhl1T2I1eWY5M-46" value="Extends" style="endArrow=block;endSize=16;endFill=0;html=1;rounded=0;exitX=0.5;exitY=0;exitDx=0;exitDy=0;" edge="1" parent="1" source="Eoh-nvDwhl1T2I1eWY5M-21" target="Eoh-nvDwhl1T2I1eWY5M-8">
          <mxGeometry width="160" relative="1" as="geometry">
            <mxPoint x="880" y="40" as="sourcePoint" />
            <mxPoint x="1040" y="40" as="targetPoint" />
          </mxGeometry>
        </mxCell>
        <mxCell id="Eoh-nvDwhl1T2I1eWY5M-47" value="Extends" style="endArrow=block;endSize=16;endFill=0;html=1;rounded=0;entryX=0.435;entryY=0.962;entryDx=0;entryDy=0;entryPerimeter=0;exitX=0.5;exitY=0;exitDx=0;exitDy=0;" edge="1" parent="1" source="Eoh-nvDwhl1T2I1eWY5M-1" target="Eoh-nvDwhl1T2I1eWY5M-16">
          <mxGeometry width="160" relative="1" as="geometry">
            <mxPoint x="890" y="50" as="sourcePoint" />
            <mxPoint x="1050" y="50" as="targetPoint" />
          </mxGeometry>
        </mxCell>
        <mxCell id="Eoh-nvDwhl1T2I1eWY5M-48" value="Extends" style="endArrow=block;endSize=16;endFill=0;html=1;rounded=0;entryX=0.712;entryY=1.154;entryDx=0;entryDy=0;entryPerimeter=0;exitX=0.5;exitY=0;exitDx=0;exitDy=0;" edge="1" parent="1" source="Eoh-nvDwhl1T2I1eWY5M-5" target="Eoh-nvDwhl1T2I1eWY5M-16">
          <mxGeometry width="160" relative="1" as="geometry">
            <mxPoint x="900" y="60" as="sourcePoint" />
            <mxPoint x="1060" y="60" as="targetPoint" />
          </mxGeometry>
        </mxCell>
      </root>
    </mxGraphModel>
  </diagram>
</mxfile>
